<svg width="80" height="80" viewBox="0 0 80 80" fill="none" xmlns="http://www.w3.org/2000/svg">
<path d="M2.16012 1.90002C1.86012 1.90002 1.62012 2.14002 1.62012 2.44002C1.62012 2.74002 1.86012 2.98002 2.16012 2.98002C2.46012 2.98002 2.70012 2.74002 2.70012 2.44002C2.70012 2.14002 2.46012 1.90002 2.16012 1.90002Z" fill="#070E20"/>
<path d="M8.45992 1.90002C8.15992 1.90002 7.91992 2.14002 7.91992 2.44002C7.91992 2.74002 8.15992 2.98002 8.45992 2.98002C8.75992 2.98002 8.99992 2.74002 8.99992 2.44002C8.99992 2.14002 8.75992 1.90002 8.45992 1.90002Z" fill="#070E20"/>
<path d="M14.7699 1.35999C14.1699 1.35999 13.6899 1.83999 13.6899 2.43999C13.6899 3.03999 14.1699 3.51999 14.7699 3.51999C15.3699 3.51999 15.8499 3.03999 15.8499 2.43999C15.8499 1.83999 15.3699 1.35999 14.7699 1.35999Z" fill="#070E20"/>
<path d="M21.08 1.35999C20.48 1.35999 20 1.83999 20 2.43999C20 3.03999 20.48 3.51999 21.08 3.51999C21.68 3.51999 22.16 3.03999 22.16 2.43999C22.16 1.83999 21.68 1.35999 21.08 1.35999Z" fill="#070E20"/>
<path d="M27.39 0.280029C26.2 0.280029 25.23 1.25003 25.23 2.44003C25.23 3.63003 26.2 4.60003 27.39 4.60003C28.58 4.60003 29.55 3.63003 29.55 2.44003C29.55 1.25003 28.58 0.280029 27.39 0.280029Z" fill="#070E20"/>
<path d="M33.69 0.280029C32.5 0.280029 31.53 1.25003 31.53 2.44003C31.53 3.63003 32.5 4.60003 33.69 4.60003C34.88 4.60003 35.85 3.63003 35.85 2.44003C35.85 1.25003 34.88 0.280029 33.69 0.280029Z" fill="#070E20"/>
<path d="M40.0001 0.280029C38.8101 0.280029 37.8401 1.25003 37.8401 2.44003C37.8401 3.63003 38.8101 4.60003 40.0001 4.60003C41.1901 4.60003 42.1601 3.63003 42.1601 2.44003C42.1601 1.25003 41.1901 0.280029 40.0001 0.280029Z" fill="#070E20"/>
<path d="M46.3099 0.280029C45.1199 0.280029 44.1499 1.25003 44.1499 2.44003C44.1499 3.63003 45.1199 4.60003 46.3099 4.60003C47.4999 4.60003 48.4699 3.63003 48.4699 2.44003C48.4699 1.25003 47.4999 0.280029 46.3099 0.280029Z" fill="#070E20"/>
<path d="M52.61 1.35999C52.01 1.35999 51.53 1.83999 51.53 2.43999C51.53 3.03999 52.01 3.51999 52.61 3.51999C53.21 3.51999 53.69 3.03999 53.69 2.43999C53.69 1.83999 53.21 1.35999 52.61 1.35999Z" fill="#070E20"/>
<path d="M58.92 0.280029C57.73 0.280029 56.76 1.25003 56.76 2.44003C56.76 3.63003 57.73 4.60003 58.92 4.60003C60.11 4.60003 61.08 3.63003 61.08 2.44003C61.08 1.25003 60.11 0.280029 58.92 0.280029Z" fill="#070E20"/>
<path d="M65.2299 1.35999C64.6299 1.35999 64.1499 1.83999 64.1499 2.43999C64.1499 3.03999 64.6299 3.51999 65.2299 3.51999C65.8299 3.51999 66.3099 3.03999 66.3099 2.43999C66.3099 1.83999 65.8299 1.35999 65.2299 1.35999Z" fill="#070E20"/>
<path d="M71.54 1.35999C70.94 1.35999 70.46 1.83999 70.46 2.43999C70.46 3.03999 70.94 3.51999 71.54 3.51999C72.14 3.51999 72.62 3.03999 72.62 2.43999C72.62 1.83999 72.14 1.35999 71.54 1.35999Z" fill="#070E20"/>
<path d="M77.84 1.90002C77.54 1.90002 77.3 2.14002 77.3 2.44002C77.3 2.74002 77.54 2.98002 77.84 2.98002C78.14 2.98002 78.38 2.74002 78.38 2.44002C78.38 2.14002 78.14 1.90002 77.84 1.90002Z" fill="#070E20"/>
<path d="M8.45988 13.6901C7.85988 13.6901 7.37988 14.1701 7.37988 14.7701C7.37988 15.3701 7.85988 15.8501 8.45988 15.8501C9.05988 15.8501 9.53988 15.3701 9.53988 14.7701C9.53988 14.1701 9.05988 13.6901 8.45988 13.6901Z" fill="#070E20"/>
<path d="M39.9999 13.6901C39.3999 13.6901 38.9199 14.1701 38.9199 14.7701C38.9199 15.3701 39.3999 15.8501 39.9999 15.8501C40.5999 15.8501 41.0799 15.3701 41.0799 14.7701C41.0799 14.1701 40.5999 13.6901 39.9999 13.6901Z" fill="#070E20"/>
<path d="M71.54 13.6901C70.94 13.6901 70.46 14.1701 70.46 14.7701C70.46 15.3701 70.94 15.8501 71.54 15.8501C72.14 15.8501 72.62 15.3701 72.62 14.7701C72.62 14.1701 72.14 13.6901 71.54 13.6901Z" fill="#070E20"/>
<path d="M8.46005 18.92C7.27005 18.92 6.30005 19.89 6.30005 21.08C6.30005 22.27 7.27005 23.24 8.46005 23.24C9.65005 23.24 10.62 22.27 10.62 21.08C10.62 19.89 9.65005 18.92 8.46005 18.92Z" fill="#070E20"/>
<path d="M33.6901 20C33.0901 20 32.6101 20.48 32.6101 21.08C32.6101 21.68 33.0901 22.16 33.6901 22.16C34.2901 22.16 34.7701 21.68 34.7701 21.08C34.7701 20.48 34.2901 20 33.6901 20Z" fill="#070E20"/>
<path d="M40.0001 18.92C38.8101 18.92 37.8401 19.89 37.8401 21.08C37.8401 22.27 38.8101 23.24 40.0001 23.24C41.1901 23.24 42.1601 22.27 42.1601 21.08C42.1601 19.89 41.1901 18.92 40.0001 18.92Z" fill="#070E20"/>
<path d="M46.31 20C45.71 20 45.23 20.48 45.23 21.08C45.23 21.68 45.71 22.16 46.31 22.16C46.91 22.16 47.39 21.68 47.39 21.08C47.39 20.48 46.91 20 46.31 20Z" fill="#070E20"/>
<path d="M71.5399 18.92C70.3499 18.92 69.3799 19.89 69.3799 21.08C69.3799 22.27 70.3499 23.24 71.5399 23.24C72.7299 23.24 73.6999 22.27 73.6999 21.08C73.6999 19.89 72.7299 18.92 71.5399 18.92Z" fill="#070E20"/>
<path d="M2.16008 26.3101C1.56008 26.3101 1.08008 26.7901 1.08008 27.3901C1.08008 27.9901 1.56008 28.4701 2.16008 28.4701C2.76008 28.4701 3.24008 27.9901 3.24008 27.3901C3.24008 26.7901 2.76008 26.3101 2.16008 26.3101Z" fill="#070E20"/>
<path d="M8.46005 25.23C7.27005 25.23 6.30005 26.2 6.30005 27.39C6.30005 28.58 7.27005 29.55 8.46005 29.55C9.65005 29.55 10.62 28.58 10.62 27.39C10.62 26.2 9.65005 25.23 8.46005 25.23Z" fill="#070E20"/>
<path d="M14.7699 26.3101C14.1699 26.3101 13.6899 26.7901 13.6899 27.3901C13.6899 27.9901 14.1699 28.4701 14.7699 28.4701C15.3699 28.4701 15.8499 27.9901 15.8499 27.3901C15.8499 26.7901 15.3699 26.3101 14.7699 26.3101Z" fill="#070E20"/>
<path d="M33.69 25.23C32.5 25.23 31.53 26.2 31.53 27.39C31.53 28.58 32.5 29.55 33.69 29.55C34.88 29.55 35.85 28.58 35.85 27.39C35.85 26.2 34.88 25.23 33.69 25.23Z" fill="#070E20"/>
<path d="M46.3099 25.23C45.1199 25.23 44.1499 26.2 44.1499 27.39C44.1499 28.58 45.1199 29.55 46.3099 29.55C47.4999 29.55 48.4699 28.58 48.4699 27.39C48.4699 26.2 47.4999 25.23 46.3099 25.23Z" fill="#070E20"/>
<path d="M65.2299 26.3101C64.6299 26.3101 64.1499 26.7901 64.1499 27.3901C64.1499 27.9901 64.6299 28.4701 65.2299 28.4701C65.8299 28.4701 66.3099 27.9901 66.3099 27.3901C66.3099 26.7901 65.8299 26.3101 65.2299 26.3101Z" fill="#070E20"/>
<path d="M71.5399 25.23C70.3499 25.23 69.3799 26.2 69.3799 27.39C69.3799 28.58 70.3499 29.55 71.5399 29.55C72.7299 29.55 73.6999 28.58 73.6999 27.39C73.6999 26.2 72.7299 25.23 71.5399 25.23Z" fill="#070E20"/>
<path d="M77.8399 25.23C76.6499 25.23 75.6799 26.2 75.6799 27.39C75.6799 28.58 76.6499 29.55 77.8399 29.55C79.0299 29.55 79.9999 28.58 79.9999 27.39C79.9999 26.2 79.0299 25.23 77.8399 25.23Z" fill="#070E20"/>
<path d="M2.16008 32.61C1.56008 32.61 1.08008 33.09 1.08008 33.69C1.08008 34.29 1.56008 34.77 2.16008 34.77C2.76008 34.77 3.24008 34.29 3.24008 33.69C3.24008 33.09 2.76008 32.61 2.16008 32.61Z" fill="#070E20"/>
<path d="M14.7699 32.61C14.1699 32.61 13.6899 33.09 13.6899 33.69C13.6899 34.29 14.1699 34.77 14.7699 34.77C15.3699 34.77 15.8499 34.29 15.8499 33.69C15.8499 33.09 15.3699 32.61 14.7699 32.61Z" fill="#070E20"/>
<path d="M33.69 31.54C32.5 31.54 31.53 32.51 31.53 33.7C31.53 34.89 32.5 35.86 33.69 35.86C34.88 35.86 35.85 34.89 35.85 33.7C35.85 32.51 34.88 31.54 33.69 31.54Z" fill="#070E20"/>
<path d="M46.3099 31.54C45.1199 31.54 44.1499 32.51 44.1499 33.7C44.1499 34.89 45.1199 35.86 46.3099 35.86C47.4999 35.86 48.4699 34.89 48.4699 33.7C48.4699 32.51 47.4999 31.54 46.3099 31.54Z" fill="#070E20"/>
<path d="M65.2299 32.61C64.6299 32.61 64.1499 33.09 64.1499 33.69C64.1499 34.29 64.6299 34.77 65.2299 34.77C65.8299 34.77 66.3099 34.29 66.3099 33.69C66.3099 33.09 65.8299 32.61 65.2299 32.61Z" fill="#070E20"/>
<path d="M77.8399 31.54C76.6499 31.54 75.6799 32.51 75.6799 33.7C75.6799 34.89 76.6499 35.86 77.8399 35.86C79.0299 35.86 79.9999 34.89 79.9999 33.7C79.9999 32.51 79.0299 31.54 77.8399 31.54Z" fill="#070E20"/>
<path d="M2.16008 38.92C1.56008 38.92 1.08008 39.4 1.08008 40C1.08008 40.6 1.56008 41.08 2.16008 41.08C2.76008 41.08 3.24008 40.6 3.24008 40C3.24008 39.4 2.76008 38.92 2.16008 38.92Z" fill="#070E20"/>
<path d="M14.7701 37.8401C13.5801 37.8401 12.6101 38.8101 12.6101 40.0001C12.6101 41.1901 13.5801 42.1601 14.7701 42.1601C15.9601 42.1601 16.9301 41.1901 16.9301 40.0001C16.9301 38.8101 15.9601 37.8401 14.7701 37.8401Z" fill="#070E20"/>
<path d="M33.6901 38.92C33.0901 38.92 32.6101 39.4 32.6101 40C32.6101 40.6 33.0901 41.08 33.6901 41.08C34.2901 41.08 34.7701 40.6 34.7701 40C34.7701 39.4 34.2901 38.92 33.6901 38.92Z" fill="#070E20"/>
<path d="M46.31 38.92C45.71 38.92 45.23 39.4 45.23 40C45.23 40.6 45.71 41.08 46.31 41.08C46.91 41.08 47.39 40.6 47.39 40C47.39 39.4 46.91 38.92 46.31 38.92Z" fill="#070E20"/>
<path d="M65.2301 37.8401C64.0401 37.8401 63.0701 38.8101 63.0701 40.0001C63.0701 41.1901 64.0401 42.1601 65.2301 42.1601C66.4201 42.1601 67.3901 41.1901 67.3901 40.0001C67.3901 38.8101 66.4201 37.8401 65.2301 37.8401Z" fill="#070E20"/>
<path d="M77.84 38.92C77.24 38.92 76.76 39.4 76.76 40C76.76 40.6 77.24 41.08 77.84 41.08C78.44 41.08 78.92 40.6 78.92 40C78.92 39.4 78.44 38.92 77.84 38.92Z" fill="#070E20"/>
<path d="M2.16008 45.23C1.56008 45.23 1.08008 45.71 1.08008 46.31C1.08008 46.91 1.56008 47.39 2.16008 47.39C2.76008 47.39 3.24008 46.91 3.24008 46.31C3.24008 45.71 2.76008 45.23 2.16008 45.23Z" fill="#070E20"/>
<path d="M14.7701 44.15C13.5801 44.15 12.6101 45.12 12.6101 46.31C12.6101 47.5 13.5801 48.47 14.7701 48.47C15.9601 48.47 16.9301 47.5 16.9301 46.31C16.9301 45.12 15.9601 44.15 14.7701 44.15Z" fill="#070E20"/>
<path d="M33.6901 45.23C33.0901 45.23 32.6101 45.71 32.6101 46.31C32.6101 46.91 33.0901 47.39 33.6901 47.39C34.2901 47.39 34.7701 46.91 34.7701 46.31C34.7701 45.71 34.2901 45.23 33.6901 45.23Z" fill="#070E20"/>
<path d="M40.0001 44.15C38.8101 44.15 37.8401 45.12 37.8401 46.31C37.8401 47.5 38.8101 48.47 40.0001 48.47C41.1901 48.47 42.1601 47.5 42.1601 46.31C42.1601 45.12 41.1901 44.15 40.0001 44.15Z" fill="#070E20"/>
<path d="M46.31 45.23C45.71 45.23 45.23 45.71 45.23 46.31C45.23 46.91 45.71 47.39 46.31 47.39C46.91 47.39 47.39 46.91 47.39 46.31C47.39 45.71 46.91 45.23 46.31 45.23Z" fill="#070E20"/>
<path d="M65.2301 44.15C64.0401 44.15 63.0701 45.12 63.0701 46.31C63.0701 47.5 64.0401 48.47 65.2301 48.47C66.4201 48.47 67.3901 47.5 67.3901 46.31C67.3901 45.12 66.4201 44.15 65.2301 44.15Z" fill="#070E20"/>
<path d="M77.84 45.23C77.24 45.23 76.76 45.71 76.76 46.31C76.76 46.91 77.24 47.39 77.84 47.39C78.44 47.39 78.92 46.91 78.92 46.31C78.92 45.71 78.44 45.23 77.84 45.23Z" fill="#070E20"/>
<path d="M2.16 50.4601C0.97 50.4601 0 51.4301 0 52.6201C0 53.8101 0.97 54.7801 2.16 54.7801C3.35 54.7801 4.32 53.8101 4.32 52.6201C4.32 51.4301 3.35 50.4601 2.16 50.4601Z" fill="#070E20"/>
<path d="M8.46005 50.4601C7.27005 50.4601 6.30005 51.4301 6.30005 52.6201C6.30005 53.8101 7.27005 54.7801 8.46005 54.7801C9.65005 54.7801 10.62 53.8101 10.62 52.6201C10.62 51.4301 9.65005 50.4601 8.46005 50.4601Z" fill="#070E20"/>
<path d="M14.7701 50.4601C13.5801 50.4601 12.6101 51.4301 12.6101 52.6201C12.6101 53.8101 13.5801 54.7801 14.7701 54.7801C15.9601 54.7801 16.9301 53.8101 16.9301 52.6201C16.9301 51.4301 15.9601 50.4601 14.7701 50.4601Z" fill="#070E20"/>
<path d="M40.0001 50.4601C38.8101 50.4601 37.8401 51.4301 37.8401 52.6201C37.8401 53.8101 38.8101 54.7801 40.0001 54.7801C41.1901 54.7801 42.1601 53.8101 42.1601 52.6201C42.1601 51.4301 41.1901 50.4601 40.0001 50.4601Z" fill="#070E20"/>
<path d="M65.2299 51.54C64.6299 51.54 64.1499 52.02 64.1499 52.62C64.1499 53.22 64.6299 53.7 65.2299 53.7C65.8299 53.7 66.3099 53.22 66.3099 52.62C66.3099 52.02 65.8299 51.54 65.2299 51.54Z" fill="#070E20"/>
<path d="M71.5399 50.4601C70.3499 50.4601 69.3799 51.4301 69.3799 52.6201C69.3799 53.8101 70.3499 54.7801 71.5399 54.7801C72.7299 54.7801 73.6999 53.8101 73.6999 52.6201C73.6999 51.4301 72.7299 50.4601 71.5399 50.4601Z" fill="#070E20"/>
<path d="M77.84 51.54C77.24 51.54 76.76 52.02 76.76 52.62C76.76 53.22 77.24 53.7 77.84 53.7C78.44 53.7 78.92 53.22 78.92 52.62C78.92 52.02 78.44 51.54 77.84 51.54Z" fill="#070E20"/>
<path d="M8.46005 56.77C7.27005 56.77 6.30005 57.74 6.30005 58.93C6.30005 60.12 7.27005 61.09 8.46005 61.09C9.65005 61.09 10.62 60.12 10.62 58.93C10.62 57.74 9.65005 56.77 8.46005 56.77Z" fill="#070E20"/>
<path d="M39.9999 57.8401C39.3999 57.8401 38.9199 58.3201 38.9199 58.9201C38.9199 59.5201 39.3999 60.0001 39.9999 60.0001C40.5999 60.0001 41.0799 59.5201 41.0799 58.9201C41.0799 58.3201 40.5999 57.8401 39.9999 57.8401Z" fill="#070E20"/>
<path d="M71.54 57.8401C70.94 57.8401 70.46 58.3201 70.46 58.9201C70.46 59.5201 70.94 60.0001 71.54 60.0001C72.14 60.0001 72.62 59.5201 72.62 58.9201C72.62 58.3201 72.14 57.8401 71.54 57.8401Z" fill="#070E20"/>
<path d="M8.45988 64.15C7.85988 64.15 7.37988 64.63 7.37988 65.23C7.37988 65.83 7.85988 66.31 8.45988 66.31C9.05988 66.31 9.53988 65.83 9.53988 65.23C9.53988 64.63 9.05988 64.15 8.45988 64.15Z" fill="#070E20"/>
<path d="M71.54 64.6901C71.24 64.6901 71 64.9301 71 65.2301C71 65.5301 71.24 65.7701 71.54 65.7701C71.84 65.7701 72.08 65.5301 72.08 65.2301C72.08 64.9301 71.84 64.6901 71.54 64.6901Z" fill="#070E20"/>
<path d="M2.16012 77.2101C1.86012 77.2101 1.62012 77.4501 1.62012 77.7501C1.62012 78.0501 1.86012 78.2901 2.16012 78.2901C2.46012 78.2901 2.70012 78.0501 2.70012 77.7501C2.70012 77.4501 2.46012 77.2101 2.16012 77.2101Z" fill="#070E20"/>
<path d="M8.45988 76.67C7.85988 76.67 7.37988 77.15 7.37988 77.75C7.37988 78.35 7.85988 78.83 8.45988 78.83C9.05988 78.83 9.53988 78.35 9.53988 77.75C9.53988 77.15 9.05988 76.67 8.45988 76.67Z" fill="#070E20"/>
<path d="M14.7699 76.67C14.1699 76.67 13.6899 77.15 13.6899 77.75C13.6899 78.35 14.1699 78.83 14.7699 78.83C15.3699 78.83 15.8499 78.35 15.8499 77.75C15.8499 77.15 15.3699 76.67 14.7699 76.67Z" fill="#070E20"/>
<path d="M21.0799 75.5901C19.8899 75.5901 18.9199 76.5601 18.9199 77.7501C18.9199 78.9401 19.8899 79.9101 21.0799 79.9101C22.2699 79.9101 23.2399 78.9401 23.2399 77.7501C23.2399 76.5601 22.2699 75.5901 21.0799 75.5901Z" fill="#070E20"/>
<path d="M27.3901 76.67C26.7901 76.67 26.3101 77.15 26.3101 77.75C26.3101 78.35 26.7901 78.83 27.3901 78.83C27.9901 78.83 28.4701 78.35 28.4701 77.75C28.4701 77.15 27.9901 76.67 27.3901 76.67Z" fill="#070E20"/>
<path d="M33.69 75.5901C32.5 75.5901 31.53 76.5601 31.53 77.7501C31.53 78.9401 32.5 79.9101 33.69 79.9101C34.88 79.9101 35.85 78.9401 35.85 77.7501C35.85 76.5601 34.88 75.5901 33.69 75.5901Z" fill="#070E20"/>
<path d="M40.0001 75.5901C38.8101 75.5901 37.8401 76.5601 37.8401 77.7501C37.8401 78.9401 38.8101 79.9101 40.0001 79.9101C41.1901 79.9101 42.1601 78.9401 42.1601 77.7501C42.1601 76.5601 41.1901 75.5901 40.0001 75.5901Z" fill="#070E20"/>
<path d="M46.3099 75.5901C45.1199 75.5901 44.1499 76.5601 44.1499 77.7501C44.1499 78.9401 45.1199 79.9101 46.3099 79.9101C47.4999 79.9101 48.4699 78.9401 48.4699 77.7501C48.4699 76.5601 47.4999 75.5901 46.3099 75.5901Z" fill="#070E20"/>
<path d="M52.61 76.67C52.01 76.67 51.53 77.15 51.53 77.75C51.53 78.35 52.01 78.83 52.61 78.83C53.21 78.83 53.69 78.35 53.69 77.75C53.69 77.15 53.21 76.67 52.61 76.67Z" fill="#070E20"/>
<path d="M58.9199 77.2101C58.6199 77.2101 58.3799 77.4501 58.3799 77.7501C58.3799 78.0501 58.6199 78.2901 58.9199 78.2901C59.2199 78.2901 59.4599 78.0501 59.4599 77.7501C59.4599 77.4501 59.2199 77.2101 58.9199 77.2101Z" fill="#070E20"/>
<path d="M65.2299 76.67C64.6299 76.67 64.1499 77.15 64.1499 77.75C64.1499 78.35 64.6299 78.83 65.2299 78.83C65.8299 78.83 66.3099 78.35 66.3099 77.75C66.3099 77.15 65.8299 76.67 65.2299 76.67Z" fill="#070E20"/>
<path d="M71.54 77.2101C71.24 77.2101 71 77.4501 71 77.7501C71 78.0501 71.24 78.2901 71.54 78.2901C71.84 78.2901 72.08 78.0501 72.08 77.7501C72.08 77.4501 71.84 77.2101 71.54 77.2101Z" fill="#070E20"/>
<path d="M77.84 77.2101C77.54 77.2101 77.3 77.4501 77.3 77.7501C77.3 78.0501 77.54 78.2901 77.84 78.2901C78.14 78.2901 78.38 78.0501 78.38 77.7501C78.38 77.4501 78.14 77.2101 77.84 77.2101Z" fill="#070E20"/>
</svg>
