<svg width="81" height="81" viewBox="0 0 81 81" fill="none" xmlns="http://www.w3.org/2000/svg">
<path d="M53.3385 1.44995C53.9385 1.44995 54.4185 1.92995 54.4185 2.52995C54.4185 3.12995 53.9385 3.60995 53.3385 3.60995C52.7385 3.60995 52.2585 3.12995 52.2585 2.52995C52.2585 1.92995 52.7385 1.44995 53.3385 1.44995Z" fill="#070E20"/>
<path d="M47.0389 0.369995C48.2289 0.369995 49.199 1.34 49.199 2.53C49.199 3.72 48.2289 4.69 47.0389 4.69C45.8489 4.69 44.879 3.72 44.879 2.53C44.879 1.34 45.8489 0.369995 47.0389 0.369995Z" fill="#070E20"/>
<path d="M40.7299 0.369995C41.9199 0.369995 42.8899 1.34 42.8899 2.53C42.8899 3.72 41.9199 4.69 40.7299 4.69C39.5399 4.69 38.5699 3.72 38.5699 2.53C38.5699 1.34 39.5399 0.369995 40.7299 0.369995Z" fill="#070E20"/>
<path d="M34.4208 0.369995C35.6108 0.369995 36.5808 1.34 36.5808 2.53C36.5808 3.72 35.6108 4.69 34.4208 4.69C33.2308 4.69 32.2608 3.72 32.2608 2.53C32.2608 1.34 33.2308 0.369995 34.4208 0.369995Z" fill="#070E20"/>
<path d="M28.1116 1.44995C28.7116 1.44995 29.1917 1.92995 29.1917 2.52995C29.1917 3.12995 28.7116 3.60995 28.1116 3.60995C27.5116 3.60995 27.0317 3.12995 27.0317 2.52995C27.0317 1.92995 27.5116 1.44995 28.1116 1.44995Z" fill="#070E20"/>
<path d="M59.6476 6.67993C60.8376 6.67993 61.8076 7.64994 61.8076 8.83994C61.8076 10.0299 60.8376 10.9999 59.6476 10.9999C58.4576 10.9999 57.4876 10.0299 57.4876 8.83994C57.4876 7.64994 58.4576 6.67993 59.6476 6.67993Z" fill="#070E20"/>
<path d="M53.3383 6.67993C54.5283 6.67993 55.4983 7.64994 55.4983 8.83994C55.4983 10.0299 54.5283 10.9999 53.3383 10.9999C52.1483 10.9999 51.1783 10.0299 51.1783 8.83994C51.1783 7.64994 52.1483 6.67993 53.3383 6.67993Z" fill="#070E20"/>
<path d="M47.0391 7.75C47.6391 7.75 48.1191 8.23 48.1191 8.83C48.1191 9.43 47.6391 9.91 47.0391 9.91C46.4391 9.91 45.9592 9.43 45.9592 8.83C45.9592 8.23 46.4391 7.75 47.0391 7.75Z" fill="#070E20"/>
<path d="M21.8122 6.67993C23.0022 6.67993 23.9722 7.64994 23.9722 8.83994C23.9722 10.0299 23.0022 10.9999 21.8122 10.9999C20.6222 10.9999 19.6522 10.0299 19.6522 8.83994C19.6522 7.64994 20.6222 6.67993 21.8122 6.67993Z" fill="#070E20"/>
<path d="M65.9569 14.0601C66.5569 14.0601 67.0369 14.5401 67.0369 15.1401C67.0369 15.7401 66.5569 16.2201 65.9569 16.2201C65.3569 16.2201 64.8769 15.7401 64.8769 15.1401C64.8769 14.5401 65.3569 14.0601 65.9569 14.0601Z" fill="#070E20"/>
<path d="M40.7299 12.98C41.9199 12.98 42.8899 13.95 42.8899 15.14C42.8899 16.33 41.9199 17.3 40.7299 17.3C39.5399 17.3 38.5699 16.33 38.5699 15.14C38.5699 13.95 39.5399 12.98 40.7299 12.98Z" fill="#070E20"/>
<path d="M15.5031 12.98C16.6931 12.98 17.6631 13.95 17.6631 15.14C17.6631 16.33 16.6931 17.3 15.5031 17.3C14.3131 17.3 13.3431 16.33 13.3431 15.14C13.3431 13.95 14.3131 12.98 15.5031 12.98Z" fill="#070E20"/>
<path d="M72.2562 20.37C72.8562 20.37 73.3362 20.85 73.3362 21.45C73.3362 22.05 72.8562 22.53 72.2562 22.53C71.6562 22.53 71.1761 22.05 71.1761 21.45C71.1761 20.85 71.6562 20.37 72.2562 20.37Z" fill="#070E20"/>
<path d="M34.4208 19.29C35.6108 19.29 36.5808 20.26 36.5808 21.45C36.5808 22.64 35.6108 23.61 34.4208 23.61C33.2308 23.61 32.2608 22.64 32.2608 21.45C32.2608 20.26 33.2308 19.29 34.4208 19.29Z" fill="#070E20"/>
<path d="M9.19379 19.29C10.3838 19.29 11.3538 20.26 11.3538 21.45C11.3538 22.64 10.3838 23.61 9.19379 23.61C8.00379 23.61 7.03381 22.64 7.03381 21.45C7.03381 20.26 8.00379 19.29 9.19379 19.29Z" fill="#070E20"/>
<path d="M78.565 27.22C78.865 27.22 79.105 27.46 79.105 27.76C79.105 28.06 78.865 28.3 78.565 28.3C78.265 28.3 78.025 28.06 78.025 27.76C78.025 27.46 78.265 27.22 78.565 27.22Z" fill="#070E20"/>
<path d="M28.1116 26.6799C28.7116 26.6799 29.1917 27.1599 29.1917 27.7599C29.1917 28.3599 28.7116 28.8399 28.1116 28.8399C27.5116 28.8399 27.0317 28.3599 27.0317 27.7599C27.0317 27.1599 27.5116 26.6799 28.1116 26.6799Z" fill="#070E20"/>
<path d="M2.89465 26.6799C3.49465 26.6799 3.97461 27.1599 3.97461 27.7599C3.97461 28.3599 3.49465 28.8399 2.89465 28.8399C2.29465 28.8399 1.81464 28.3599 1.81464 27.7599C1.81464 27.1599 2.29465 26.6799 2.89465 26.6799Z" fill="#070E20"/>
<path d="M78.565 33.52C78.865 33.52 79.105 33.76 79.105 34.06C79.105 34.36 78.865 34.6 78.565 34.6C78.265 34.6 78.025 34.36 78.025 34.06C78.025 33.76 78.265 33.52 78.565 33.52Z" fill="#070E20"/>
<path d="M28.1115 31.91C29.3015 31.91 30.2715 32.88 30.2715 34.07C30.2715 35.26 29.3015 36.23 28.1115 36.23C26.9215 36.23 25.9515 35.26 25.9515 34.07C25.9515 32.88 26.9215 31.91 28.1115 31.91Z" fill="#070E20"/>
<path d="M2.89471 31.91C4.08471 31.91 5.05469 32.88 5.05469 34.07C5.05469 35.26 4.08471 36.23 2.89471 36.23C1.70471 36.23 0.73468 35.26 0.73468 34.07C0.73468 32.88 1.70471 31.91 2.89471 31.91Z" fill="#070E20"/>
<path d="M78.565 39.8301C78.865 39.8301 79.105 40.0701 79.105 40.3701C79.105 40.6701 78.865 40.9101 78.565 40.9101C78.265 40.9101 78.025 40.6701 78.025 40.3701C78.025 40.0701 78.265 39.8301 78.565 39.8301Z" fill="#070E20"/>
<path d="M28.1115 38.21C29.3015 38.21 30.2715 39.1799 30.2715 40.3699C30.2715 41.5599 29.3015 42.53 28.1115 42.53C26.9215 42.53 25.9515 41.5599 25.9515 40.3699C25.9515 39.1799 26.9215 38.21 28.1115 38.21Z" fill="#070E20"/>
<path d="M2.89471 38.21C4.08471 38.21 5.05469 39.1799 5.05469 40.3699C5.05469 41.5599 4.08471 42.53 2.89471 42.53C1.70471 42.53 0.73468 41.5599 0.73468 40.3699C0.73468 39.1799 1.70471 38.21 2.89471 38.21Z" fill="#070E20"/>
<path d="M78.565 46.14C78.865 46.14 79.105 46.38 79.105 46.68C79.105 46.98 78.865 47.22 78.565 47.22C78.265 47.22 78.025 46.98 78.025 46.68C78.025 46.38 78.265 46.14 78.565 46.14Z" fill="#070E20"/>
<path d="M28.1115 44.52C29.3015 44.52 30.2715 45.49 30.2715 46.68C30.2715 47.87 29.3015 48.84 28.1115 48.84C26.9215 48.84 25.9515 47.87 25.9515 46.68C25.9515 45.49 26.9215 44.52 28.1115 44.52Z" fill="#070E20"/>
<path d="M2.89471 44.52C4.08471 44.52 5.05469 45.49 5.05469 46.68C5.05469 47.87 4.08471 48.84 2.89471 48.84C1.70471 48.84 0.73468 47.87 0.73468 46.68C0.73468 45.49 1.70471 44.52 2.89471 44.52Z" fill="#070E20"/>
<path d="M78.565 52.4399C78.865 52.4399 79.105 52.6799 79.105 52.9799C79.105 53.2799 78.865 53.5199 78.565 53.5199C78.265 53.5199 78.025 53.2799 78.025 52.9799C78.025 52.6799 78.265 52.4399 78.565 52.4399Z" fill="#070E20"/>
<path d="M28.1116 51.91C28.7116 51.91 29.1917 52.39 29.1917 52.99C29.1917 53.59 28.7116 54.07 28.1116 54.07C27.5116 54.07 27.0317 53.59 27.0317 52.99C27.0317 52.39 27.5116 51.91 28.1116 51.91Z" fill="#070E20"/>
<path d="M2.89465 51.91C3.49465 51.91 3.97461 52.39 3.97461 52.99C3.97461 53.59 3.49465 54.07 2.89465 54.07C2.29465 54.07 1.81464 53.59 1.81464 52.99C1.81464 52.39 2.29465 51.91 2.89465 51.91Z" fill="#070E20"/>
<path d="M72.2562 58.21C72.8562 58.21 73.3362 58.6899 73.3362 59.2899C73.3362 59.8899 72.8562 60.3699 72.2562 60.3699C71.6562 60.3699 71.1761 59.8899 71.1761 59.2899C71.1761 58.6899 71.6562 58.21 72.2562 58.21Z" fill="#070E20"/>
<path d="M34.4208 57.13C35.6108 57.13 36.5808 58.1 36.5808 59.29C36.5808 60.48 35.6108 61.45 34.4208 61.45C33.2308 61.45 32.2608 60.48 32.2608 59.29C32.2608 58.1 33.2308 57.13 34.4208 57.13Z" fill="#070E20"/>
<path d="M9.19379 57.13C10.3838 57.13 11.3538 58.1 11.3538 59.29C11.3538 60.48 10.3838 61.45 9.19379 61.45C8.00379 61.45 7.03381 60.48 7.03381 59.29C7.03381 58.1 8.00379 57.13 9.19379 57.13Z" fill="#070E20"/>
<path d="M65.9569 64.52C66.5569 64.52 67.0369 65 67.0369 65.6C67.0369 66.2 66.5569 66.68 65.9569 66.68C65.3569 66.68 64.8769 66.2 64.8769 65.6C64.8769 65 65.3569 64.52 65.9569 64.52Z" fill="#070E20"/>
<path d="M40.7299 63.4399C41.9199 63.4399 42.8899 64.4099 42.8899 65.5999C42.8899 66.7899 41.9199 67.7599 40.7299 67.7599C39.5399 67.7599 38.5699 66.7899 38.5699 65.5999C38.5699 64.4099 39.5399 63.4399 40.7299 63.4399Z" fill="#070E20"/>
<path d="M15.5031 63.4399C16.6931 63.4399 17.6631 64.4099 17.6631 65.5999C17.6631 66.7899 16.6931 67.7599 15.5031 67.7599C14.3131 67.7599 13.3431 66.7899 13.3431 65.5999C13.3431 64.4099 14.3131 63.4399 15.5031 63.4399Z" fill="#070E20"/>
<path d="M59.6476 69.75C60.8376 69.75 61.8076 70.72 61.8076 71.91C61.8076 73.1 60.8376 74.07 59.6476 74.07C58.4576 74.07 57.4876 73.1 57.4876 71.91C57.4876 70.72 58.4576 69.75 59.6476 69.75Z" fill="#070E20"/>
<path d="M53.3383 69.75C54.5283 69.75 55.4983 70.72 55.4983 71.91C55.4983 73.1 54.5283 74.07 53.3383 74.07C52.1483 74.07 51.1783 73.1 51.1783 71.91C51.1783 70.72 52.1483 69.75 53.3383 69.75Z" fill="#070E20"/>
<path d="M47.0391 70.8301C47.6391 70.8301 48.1191 71.3101 48.1191 71.9101C48.1191 72.5101 47.6391 72.9901 47.0391 72.9901C46.4391 72.9901 45.9592 72.5101 45.9592 71.9101C45.9592 71.3101 46.4391 70.8301 47.0391 70.8301Z" fill="#070E20"/>
<path d="M21.8122 69.75C23.0022 69.75 23.9722 70.72 23.9722 71.91C23.9722 73.1 23.0022 74.07 21.8122 74.07C20.6222 74.07 19.6522 73.1 19.6522 71.91C19.6522 70.72 20.6222 69.75 21.8122 69.75Z" fill="#070E20"/>
<path d="M53.3385 77.13C53.9385 77.13 54.4185 77.61 54.4185 78.21C54.4185 78.81 53.9385 79.29 53.3385 79.29C52.7385 79.29 52.2585 78.81 52.2585 78.21C52.2585 77.61 52.7385 77.13 53.3385 77.13Z" fill="#070E20"/>
<path d="M47.0389 76.0601C48.2289 76.0601 49.199 77.0301 49.199 78.2201C49.199 79.4101 48.2289 80.3801 47.0389 80.3801C45.8489 80.3801 44.879 79.4101 44.879 78.2201C44.879 77.0301 45.8489 76.0601 47.0389 76.0601Z" fill="#070E20"/>
<path d="M40.7299 76.0601C41.9199 76.0601 42.8899 77.0301 42.8899 78.2201C42.8899 79.4101 41.9199 80.3801 40.7299 80.3801C39.5399 80.3801 38.5699 79.4101 38.5699 78.2201C38.5699 77.0301 39.5399 76.0601 40.7299 76.0601Z" fill="#070E20"/>
<path d="M34.4208 76.0601C35.6108 76.0601 36.5808 77.0301 36.5808 78.2201C36.5808 79.4101 35.6108 80.3801 34.4208 80.3801C33.2308 80.3801 32.2608 79.4101 32.2608 78.2201C32.2608 77.0301 33.2308 76.0601 34.4208 76.0601Z" fill="#070E20"/>
<path d="M28.1116 77.13C28.7116 77.13 29.1917 77.61 29.1917 78.21C29.1917 78.81 28.7116 79.29 28.1116 79.29C27.5116 79.29 27.0317 78.81 27.0317 78.21C27.0317 77.61 27.5116 77.13 28.1116 77.13Z" fill="#070E20"/>
</svg>
