<svg width="80" height="80" viewBox="0 0 80 80" fill="none" xmlns="http://www.w3.org/2000/svg">
<path d="M33.6896 1.08008C33.0896 1.08008 32.6096 1.56008 32.6096 2.16008C32.6096 2.76008 33.0896 3.24008 33.6896 3.24008C34.2896 3.24008 34.7696 2.76008 34.7696 2.16008C34.7696 1.56008 34.2896 1.08008 33.6896 1.08008Z" fill="#070E20"/>
<path d="M40.0001 0C38.8101 0 37.8401 0.97 37.8401 2.16C37.8401 3.35 38.8101 4.32 40.0001 4.32C41.1901 4.32 42.1601 3.35 42.1601 2.16C42.1601 0.97 41.1901 0 40.0001 0Z" fill="#070E20"/>
<path d="M46.3088 1.08008C45.7088 1.08008 45.2288 1.56008 45.2288 2.16008C45.2288 2.76008 45.7088 3.24008 46.3088 3.24008C46.9088 3.24008 47.3888 2.76008 47.3888 2.16008C47.3888 1.56008 46.9088 1.08008 46.3088 1.08008Z" fill="#070E20"/>
<path d="M27.3888 6.30957C26.1988 6.30957 25.2288 7.27957 25.2288 8.46957C25.2288 9.65957 26.1988 10.6296 27.3888 10.6296C28.5788 10.6296 29.5488 9.65957 29.5488 8.46957C29.5488 7.27957 28.5788 6.30957 27.3888 6.30957Z" fill="#070E20"/>
<path d="M52.6097 6.31006C51.4197 6.31006 50.4497 7.28006 50.4497 8.47006C50.4497 9.66006 51.4197 10.6301 52.6097 10.6301C53.7997 10.6301 54.7697 9.66006 54.7697 8.47006C54.7697 7.28006 53.7997 6.31006 52.6097 6.31006Z" fill="#070E20"/>
<path d="M21.0802 13.6875C20.4802 13.6875 20.0002 14.1675 20.0002 14.7675C20.0002 15.3675 20.4802 15.8475 21.0802 15.8475C21.6802 15.8475 22.1602 15.3675 22.1602 14.7675C22.1602 14.1675 21.6802 13.6875 21.0802 13.6875Z" fill="#070E20"/>
<path d="M58.9201 13.6875C58.3201 13.6875 57.8401 14.1675 57.8401 14.7675C57.8401 15.3675 58.3201 15.8475 58.9201 15.8475C59.5201 15.8475 60.0001 15.3675 60.0001 14.7675C60.0001 14.1675 59.5201 13.6875 58.9201 13.6875Z" fill="#070E20"/>
<path d="M14.7688 20.5366C14.4688 20.5366 14.2288 20.7766 14.2288 21.0766C14.2288 21.3766 14.4688 21.6166 14.7688 21.6166C15.0688 21.6166 15.3088 21.3766 15.3088 21.0766C15.3088 20.7766 15.0688 20.5366 14.7688 20.5366Z" fill="#070E20"/>
<path d="M52.6106 20.5366C52.3106 20.5366 52.0706 20.7766 52.0706 21.0766C52.0706 21.3766 52.3106 21.6166 52.6106 21.6166C52.9106 21.6166 53.1506 21.3766 53.1506 21.0766C53.1506 20.7766 52.9106 20.5366 52.6106 20.5366Z" fill="#070E20"/>
<path d="M65.2287 19.9976C64.6287 19.9976 64.1487 20.4776 64.1487 21.0776C64.1487 21.6776 64.6287 22.1576 65.2287 22.1576C65.8287 22.1576 66.3087 21.6776 66.3087 21.0776C66.3087 20.4776 65.8287 19.9976 65.2287 19.9976Z" fill="#070E20"/>
<path d="M14.7697 26.3071C14.1697 26.3071 13.6897 26.7871 13.6897 27.3871C13.6897 27.9871 14.1697 28.4671 14.7697 28.4671C15.3697 28.4671 15.8497 27.9871 15.8497 27.3871C15.8497 26.7871 15.3697 26.3071 14.7697 26.3071Z" fill="#070E20"/>
<path d="M46.3087 25.2275C45.1187 25.2275 44.1487 26.1975 44.1487 27.3875C44.1487 28.5775 45.1187 29.5475 46.3087 29.5475C47.4987 29.5475 48.4687 28.5775 48.4687 27.3875C48.4687 26.1975 47.4987 25.2275 46.3087 25.2275Z" fill="#070E20"/>
<path d="M65.2306 25.2275C64.0406 25.2275 63.0706 26.1975 63.0706 27.3875C63.0706 28.5775 64.0406 29.5475 65.2306 29.5475C66.4206 29.5475 67.3906 28.5775 67.3906 27.3875C67.3906 26.1975 66.4206 25.2275 65.2306 25.2275Z" fill="#070E20"/>
<path d="M14.7696 31.5352C13.5796 31.5352 12.6096 32.5052 12.6096 33.6952C12.6096 34.8852 13.5796 35.8552 14.7696 35.8552C15.9596 35.8552 16.9296 34.8852 16.9296 33.6952C16.9296 32.5052 15.9596 31.5352 14.7696 31.5352Z" fill="#070E20"/>
<path d="M40.0001 31.5352C38.8101 31.5352 37.8401 32.5052 37.8401 33.6952C37.8401 34.8852 38.8101 35.8552 40.0001 35.8552C41.1901 35.8552 42.1601 34.8852 42.1601 33.6952C42.1601 32.5052 41.1901 31.5352 40.0001 31.5352Z" fill="#070E20"/>
<path d="M65.2306 31.5352C64.0406 31.5352 63.0706 32.5052 63.0706 33.6952C63.0706 34.8852 64.0406 35.8552 65.2306 35.8552C66.4206 35.8552 67.3906 34.8852 67.3906 33.6952C67.3906 32.5052 66.4206 31.5352 65.2306 31.5352Z" fill="#070E20"/>
<path d="M14.7696 37.835C13.5796 37.835 12.6096 38.805 12.6096 39.995C12.6096 41.185 13.5796 42.155 14.7696 42.155C15.9596 42.155 16.9296 41.185 16.9296 39.995C16.9296 38.805 15.9596 37.835 14.7696 37.835Z" fill="#070E20"/>
<path d="M33.6895 37.835C32.4995 37.835 31.5295 38.805 31.5295 39.995C31.5295 41.185 32.4995 42.155 33.6895 42.155C34.8795 42.155 35.8495 41.185 35.8495 39.995C35.8495 38.805 34.8795 37.835 33.6895 37.835Z" fill="#070E20"/>
<path d="M65.2306 37.835C64.0406 37.835 63.0706 38.805 63.0706 39.995C63.0706 41.185 64.0406 42.155 65.2306 42.155C66.4206 42.155 67.3906 41.185 67.3906 39.995C67.3906 38.805 66.4206 37.835 65.2306 37.835Z" fill="#070E20"/>
<path d="M14.7697 45.2246C14.1697 45.2246 13.6897 45.7046 13.6897 46.3046C13.6897 46.9046 14.1697 47.3846 14.7697 47.3846C15.3697 47.3846 15.8497 46.9046 15.8497 46.3046C15.8497 45.7046 15.3697 45.2246 14.7697 45.2246Z" fill="#070E20"/>
<path d="M27.3888 45.2246C26.7888 45.2246 26.3088 45.7046 26.3088 46.3046C26.3088 46.9046 26.7888 47.3846 27.3888 47.3846C27.9888 47.3846 28.4688 46.9046 28.4688 46.3046C28.4688 45.7046 27.9888 45.2246 27.3888 45.2246Z" fill="#070E20"/>
<path d="M65.2287 45.2246C64.6287 45.2246 64.1487 45.7046 64.1487 46.3046C64.1487 46.9046 64.6287 47.3846 65.2287 47.3846C65.8287 47.3846 66.3087 46.9046 66.3087 46.3046C66.3087 45.7046 65.8287 45.2246 65.2287 45.2246Z" fill="#070E20"/>
<path d="M21.0802 50.4546C19.8902 50.4546 18.9202 51.4246 18.9202 52.6146C18.9202 53.8046 19.8902 54.7746 21.0802 54.7746C22.2702 54.7746 23.2402 53.8046 23.2402 52.6146C23.2402 51.4246 22.2702 50.4546 21.0802 50.4546Z" fill="#070E20"/>
<path d="M58.92 50.4546C57.73 50.4546 56.76 51.4246 56.76 52.6146C56.76 53.8046 57.73 54.7746 58.92 54.7746C60.11 54.7746 61.08 53.8046 61.08 52.6146C61.08 51.4246 60.11 50.4546 58.92 50.4546Z" fill="#070E20"/>
<path d="M27.3888 57.8325C26.7888 57.8325 26.3088 58.3125 26.3088 58.9125C26.3088 59.5125 26.7888 59.9925 27.3888 59.9925C27.9888 59.9925 28.4688 59.5125 28.4688 58.9125C28.4688 58.3125 27.9888 57.8325 27.3888 57.8325Z" fill="#070E20"/>
<path d="M52.6095 57.8325C52.0095 57.8325 51.5295 58.3125 51.5295 58.9125C51.5295 59.5125 52.0095 59.9925 52.6095 59.9925C53.2095 59.9925 53.6895 59.5125 53.6895 58.9125C53.6895 58.3125 53.2095 57.8325 52.6095 57.8325Z" fill="#070E20"/>
<path d="M33.6896 64.1426C33.0896 64.1426 32.6096 64.6226 32.6096 65.2226C32.6096 65.8226 33.0896 66.3026 33.6896 66.3026C34.2896 66.3026 34.7696 65.8226 34.7696 65.2226C34.7696 64.6226 34.2896 64.1426 33.6896 64.1426Z" fill="#070E20"/>
<path d="M40.0001 63.0625C38.8101 63.0625 37.8401 64.0325 37.8401 65.2225C37.8401 66.4125 38.8101 67.3825 40.0001 67.3825C41.1901 67.3825 42.1601 66.4125 42.1601 65.2225C42.1601 64.0325 41.1901 63.0625 40.0001 63.0625Z" fill="#070E20"/>
<path d="M46.3088 64.1426C45.7088 64.1426 45.2288 64.6226 45.2288 65.2226C45.2288 65.8226 45.7088 66.3026 46.3088 66.3026C46.9088 66.3026 47.3888 65.8226 47.3888 65.2226C47.3888 64.6226 46.9088 64.1426 46.3088 64.1426Z" fill="#070E20"/>
<path d="M14.7688 77.291C14.4688 77.291 14.2288 77.531 14.2288 77.831C14.2288 78.131 14.4688 78.371 14.7688 78.371C15.0688 78.371 15.3088 78.131 15.3088 77.831C15.3088 77.531 15.0688 77.291 14.7688 77.291Z" fill="#070E20"/>
<path d="M21.0802 76.7598C20.4802 76.7598 20.0002 77.2398 20.0002 77.8398C20.0002 78.4398 20.4802 78.9198 21.0802 78.9198C21.6802 78.9198 22.1602 78.4398 22.1602 77.8398C22.1602 77.2398 21.6802 76.7598 21.0802 76.7598Z" fill="#070E20"/>
<path d="M27.3888 75.6802C26.1988 75.6802 25.2288 76.6502 25.2288 77.8402C25.2288 79.0302 26.1988 80.0002 27.3888 80.0002C28.5788 80.0002 29.5488 79.0302 29.5488 77.8402C29.5488 76.6502 28.5788 75.6802 27.3888 75.6802Z" fill="#070E20"/>
<path d="M33.6895 75.6802C32.4995 75.6802 31.5295 76.6502 31.5295 77.8402C31.5295 79.0302 32.4995 80.0002 33.6895 80.0002C34.8795 80.0002 35.8495 79.0302 35.8495 77.8402C35.8495 76.6502 34.8795 75.6802 33.6895 75.6802Z" fill="#070E20"/>
<path d="M40.0001 75.6802C38.8101 75.6802 37.8401 76.6502 37.8401 77.8402C37.8401 79.0302 38.8101 80.0002 40.0001 80.0002C41.1901 80.0002 42.1601 79.0302 42.1601 77.8402C42.1601 76.6502 41.1901 75.6802 40.0001 75.6802Z" fill="#070E20"/>
<path d="M46.3087 75.6802C45.1187 75.6802 44.1487 76.6502 44.1487 77.8402C44.1487 79.0302 45.1187 80.0002 46.3087 80.0002C47.4987 80.0002 48.4687 79.0302 48.4687 77.8402C48.4687 76.6502 47.4987 75.6802 46.3087 75.6802Z" fill="#070E20"/>
<path d="M52.6095 75.6802C51.4195 75.6802 50.4495 76.6502 50.4495 77.8402C50.4495 79.0302 51.4195 80.0002 52.6095 80.0002C53.7995 80.0002 54.7695 79.0302 54.7695 77.8402C54.7695 76.6502 53.7995 75.6802 52.6095 75.6802Z" fill="#070E20"/>
<path d="M58.9201 76.7598C58.3201 76.7598 57.8401 77.2398 57.8401 77.8398C57.8401 78.4398 58.3201 78.9198 58.9201 78.9198C59.5201 78.9198 60.0001 78.4398 60.0001 77.8398C60.0001 77.2398 59.5201 76.7598 58.9201 76.7598Z" fill="#070E20"/>
<path d="M65.2297 77.291C64.9297 77.291 64.6897 77.531 64.6897 77.831C64.6897 78.131 64.9297 78.371 65.2297 78.371C65.5297 78.371 65.7697 78.131 65.7697 77.831C65.7697 77.531 65.5297 77.291 65.2297 77.291Z" fill="#070E20"/>
</svg>
