<svg width="80" height="80" viewBox="0 0 80 80" fill="none" xmlns="http://www.w3.org/2000/svg">
<path d="M21.17 1.62C20.87 1.62 20.63 1.86 20.63 2.16C20.63 2.46 20.87 2.7 21.17 2.7C21.47 2.7 21.71 2.46 21.71 2.16C21.71 1.86 21.47 1.62 21.17 1.62Z" fill="#070E20"/>
<path d="M21.17 7.39001C20.57 7.39001 20.09 7.87002 20.09 8.47002C20.09 9.07002 20.57 9.55001 21.17 9.55001C21.77 9.55001 22.25 9.07002 22.25 8.47002C22.25 7.87002 21.77 7.39001 21.17 7.39001Z" fill="#070E20"/>
<path d="M59.01 6.31006C57.82 6.31006 56.85 7.28006 56.85 8.47006C56.85 9.66006 57.82 10.6301 59.01 10.6301C60.2 10.6301 61.17 9.66006 61.17 8.47006C61.17 7.28006 60.2 6.31006 59.01 6.31006Z" fill="#070E20"/>
<path d="M21.17 13.6899C20.57 13.6899 20.09 14.1699 20.09 14.7699C20.09 15.3699 20.57 15.8499 21.17 15.8499C21.77 15.8499 22.25 15.3699 22.25 14.7699C22.25 14.1699 21.77 13.6899 21.17 13.6899Z" fill="#070E20"/>
<path d="M52.6999 12.61C51.5099 12.61 50.5399 13.58 50.5399 14.77C50.5399 15.96 51.5099 16.93 52.6999 16.93C53.8899 16.93 54.8599 15.96 54.8599 14.77C54.8599 13.58 53.8899 12.61 52.6999 12.61Z" fill="#070E20"/>
<path d="M59.01 12.61C57.82 12.61 56.85 13.58 56.85 14.77C56.85 15.96 57.82 16.93 59.01 16.93C60.2 16.93 61.17 15.96 61.17 14.77C61.17 13.58 60.2 12.61 59.01 12.61Z" fill="#070E20"/>
<path d="M65.3199 12.61C64.1299 12.61 63.1599 13.58 63.1599 14.77C63.1599 15.96 64.1299 16.93 65.3199 16.93C66.5099 16.93 67.4799 15.96 67.4799 14.77C67.4799 13.58 66.5099 12.61 65.3199 12.61Z" fill="#070E20"/>
<path d="M21.17 18.9199C19.98 18.9199 19.01 19.8899 19.01 21.0799C19.01 22.2699 19.98 23.2399 21.17 23.2399C22.36 23.2399 23.33 22.2699 23.33 21.0799C23.33 19.8899 22.36 18.9199 21.17 18.9199Z" fill="#070E20"/>
<path d="M46.4 18.9199C45.21 18.9199 44.24 19.8899 44.24 21.0799C44.24 22.2699 45.21 23.2399 46.4 23.2399C47.59 23.2399 48.56 22.2699 48.56 21.0799C48.56 19.8899 47.59 18.9199 46.4 18.9199Z" fill="#070E20"/>
<path d="M59.01 18.9199C57.82 18.9199 56.85 19.8899 56.85 21.0799C56.85 22.2699 57.82 23.2399 59.01 23.2399C60.2 23.2399 61.17 22.2699 61.17 21.0799C61.17 19.8899 60.2 18.9199 59.01 18.9199Z" fill="#070E20"/>
<path d="M71.63 18.9199C70.44 18.9199 69.47 19.8899 69.47 21.0799C69.47 22.2699 70.44 23.2399 71.63 23.2399C72.82 23.2399 73.79 22.2699 73.79 21.0799C73.79 19.8899 72.82 18.9199 71.63 18.9199Z" fill="#070E20"/>
<path d="M2.24992 26.3101C1.64992 26.3101 1.16992 26.7901 1.16992 27.3901C1.16992 27.9901 1.64992 28.4701 2.24992 28.4701C2.84992 28.4701 3.32993 27.9901 3.32993 27.3901C3.32993 26.7901 2.84992 26.3101 2.24992 26.3101Z" fill="#070E20"/>
<path d="M21.17 25.23C19.98 25.23 19.01 26.2 19.01 27.39C19.01 28.58 19.98 29.55 21.17 29.55C22.36 29.55 23.33 28.58 23.33 27.39C23.33 26.2 22.36 25.23 21.17 25.23Z" fill="#070E20"/>
<path d="M40.09 26.3101C39.49 26.3101 39.01 26.7901 39.01 27.3901C39.01 27.9901 39.49 28.4701 40.09 28.4701C40.69 28.4701 41.17 27.9901 41.17 27.3901C41.17 26.7901 40.69 26.3101 40.09 26.3101Z" fill="#070E20"/>
<path d="M59.01 25.23C57.82 25.23 56.85 26.2 56.85 27.39C56.85 28.58 57.82 29.55 59.01 29.55C60.2 29.55 61.17 28.58 61.17 27.39C61.17 26.2 60.2 25.23 59.01 25.23Z" fill="#070E20"/>
<path d="M77.93 26.3101C77.33 26.3101 76.85 26.7901 76.85 27.3901C76.85 27.9901 77.33 28.4701 77.93 28.4701C78.53 28.4701 79.01 27.9901 79.01 27.3901C79.01 26.7901 78.53 26.3101 77.93 26.3101Z" fill="#070E20"/>
<path d="M8.5499 31.54C7.3599 31.54 6.38989 32.51 6.38989 33.7C6.38989 34.89 7.3599 35.86 8.5499 35.86C9.7399 35.86 10.7099 34.89 10.7099 33.7C10.7099 32.51 9.7399 31.54 8.5499 31.54Z" fill="#070E20"/>
<path d="M21.17 31.54C19.98 31.54 19.01 32.51 19.01 33.7C19.01 34.89 19.98 35.86 21.17 35.86C22.36 35.86 23.33 34.89 23.33 33.7C23.33 32.51 22.36 31.54 21.17 31.54Z" fill="#070E20"/>
<path d="M33.78 31.54C32.59 31.54 31.62 32.51 31.62 33.7C31.62 34.89 32.59 35.86 33.78 35.86C34.97 35.86 35.94 34.89 35.94 33.7C35.94 32.51 34.97 31.54 33.78 31.54Z" fill="#070E20"/>
<path d="M59.01 31.54C57.82 31.54 56.85 32.51 56.85 33.7C56.85 34.89 57.82 35.86 59.01 35.86C60.2 35.86 61.17 34.89 61.17 33.7C61.17 32.51 60.2 31.54 59.01 31.54Z" fill="#070E20"/>
<path d="M14.86 37.84C13.67 37.84 12.7 38.81 12.7 40C12.7 41.19 13.67 42.16 14.86 42.16C16.05 42.16 17.02 41.19 17.02 40C17.02 38.81 16.05 37.84 14.86 37.84Z" fill="#070E20"/>
<path d="M21.17 37.84C19.98 37.84 19.01 38.81 19.01 40C19.01 41.19 19.98 42.16 21.17 42.16C22.36 42.16 23.33 41.19 23.33 40C23.33 38.81 22.36 37.84 21.17 37.84Z" fill="#070E20"/>
<path d="M27.4799 37.84C26.2899 37.84 25.3199 38.81 25.3199 40C25.3199 41.19 26.2899 42.16 27.4799 42.16C28.6699 42.16 29.6399 41.19 29.6399 40C29.6399 38.81 28.6699 37.84 27.4799 37.84Z" fill="#070E20"/>
<path d="M59.0099 38.9199C58.4099 38.9199 57.9299 39.3999 57.9299 39.9999C57.9299 40.5999 58.4099 41.0799 59.0099 41.0799C59.6099 41.0799 60.0899 40.5999 60.0899 39.9999C60.0899 39.3999 59.6099 38.9199 59.0099 38.9199Z" fill="#070E20"/>
<path d="M21.17 44.15C19.98 44.15 19.01 45.12 19.01 46.31C19.01 47.5 19.98 48.47 21.17 48.47C22.36 48.47 23.33 47.5 23.33 46.31C23.33 45.12 22.36 44.15 21.17 44.15Z" fill="#070E20"/>
<path d="M59.01 45.77C58.71 45.77 58.47 46.01 58.47 46.31C58.47 46.61 58.71 46.85 59.01 46.85C59.31 46.85 59.55 46.61 59.55 46.31C59.55 46.01 59.31 45.77 59.01 45.77Z" fill="#070E20"/>
<path d="M2.24996 52.0801C1.94996 52.0801 1.70996 52.3201 1.70996 52.6201C1.70996 52.9201 1.94996 53.1601 2.24996 53.1601C2.54996 53.1601 2.78996 52.9201 2.78996 52.6201C2.78996 52.3201 2.54996 52.0801 2.24996 52.0801Z" fill="#070E20"/>
<path d="M8.54997 51.54C7.94997 51.54 7.46997 52.02 7.46997 52.62C7.46997 53.22 7.94997 53.7 8.54997 53.7C9.14997 53.7 9.62997 53.22 9.62997 52.62C9.62997 52.02 9.14997 51.54 8.54997 51.54Z" fill="#070E20"/>
<path d="M14.8599 51.54C14.2599 51.54 13.7799 52.02 13.7799 52.62C13.7799 53.22 14.2599 53.7 14.8599 53.7C15.4599 53.7 15.9399 53.22 15.9399 52.62C15.9399 52.02 15.4599 51.54 14.8599 51.54Z" fill="#070E20"/>
<path d="M21.17 51.54C20.57 51.54 20.09 52.02 20.09 52.62C20.09 53.22 20.57 53.7 21.17 53.7C21.77 53.7 22.25 53.22 22.25 52.62C22.25 52.02 21.77 51.54 21.17 51.54Z" fill="#070E20"/>
<path d="M27.4799 50.46C26.2899 50.46 25.3199 51.43 25.3199 52.62C25.3199 53.81 26.2899 54.78 27.4799 54.78C28.6699 54.78 29.6399 53.81 29.6399 52.62C29.6399 51.43 28.6699 50.46 27.4799 50.46Z" fill="#070E20"/>
<path d="M33.78 50.46C32.59 50.46 31.62 51.43 31.62 52.62C31.62 53.81 32.59 54.78 33.78 54.78C34.97 54.78 35.94 53.81 35.94 52.62C35.94 51.43 34.97 50.46 33.78 50.46Z" fill="#070E20"/>
<path d="M40.0899 50.46C38.8999 50.46 37.9299 51.43 37.9299 52.62C37.9299 53.81 38.8999 54.78 40.0899 54.78C41.2799 54.78 42.2499 53.81 42.2499 52.62C42.2499 51.43 41.2799 50.46 40.0899 50.46Z" fill="#070E20"/>
<path d="M46.4 50.46C45.21 50.46 44.24 51.43 44.24 52.62C44.24 53.81 45.21 54.78 46.4 54.78C47.59 54.78 48.56 53.81 48.56 52.62C48.56 51.43 47.59 50.46 46.4 50.46Z" fill="#070E20"/>
<path d="M52.6999 50.46C51.5099 50.46 50.5399 51.43 50.5399 52.62C50.5399 53.81 51.5099 54.78 52.6999 54.78C53.8899 54.78 54.8599 53.81 54.8599 52.62C54.8599 51.43 53.8899 50.46 52.6999 50.46Z" fill="#070E20"/>
<path d="M59.01 50.46C57.82 50.46 56.85 51.43 56.85 52.62C56.85 53.81 57.82 54.78 59.01 54.78C60.2 54.78 61.17 53.81 61.17 52.62C61.17 51.43 60.2 50.46 59.01 50.46Z" fill="#070E20"/>
<path d="M65.32 51.54C64.72 51.54 64.24 52.02 64.24 52.62C64.24 53.22 64.72 53.7 65.32 53.7C65.92 53.7 66.4 53.22 66.4 52.62C66.4 52.02 65.92 51.54 65.32 51.54Z" fill="#070E20"/>
<path d="M71.6299 51.54C71.0299 51.54 70.5499 52.02 70.5499 52.62C70.5499 53.22 71.0299 53.7 71.6299 53.7C72.2299 53.7 72.7099 53.22 72.7099 52.62C72.7099 52.02 72.2299 51.54 71.6299 51.54Z" fill="#070E20"/>
<path d="M77.9299 52.0801C77.6299 52.0801 77.3899 52.3201 77.3899 52.6201C77.3899 52.9201 77.6299 53.1601 77.9299 53.1601C78.2299 53.1601 78.4699 52.9201 78.4699 52.6201C78.4699 52.3201 78.2299 52.0801 77.9299 52.0801Z" fill="#070E20"/>
<path d="M40.09 57.84C39.49 57.84 39.01 58.32 39.01 58.92C39.01 59.52 39.49 60 40.09 60C40.69 60 41.17 59.52 41.17 58.92C41.17 58.32 40.69 57.84 40.09 57.84Z" fill="#070E20"/>
<path d="M33.78 63.0701C32.59 63.0701 31.62 64.0401 31.62 65.2301C31.62 66.4201 32.59 67.3901 33.78 67.3901C34.97 67.3901 35.94 66.4201 35.94 65.2301C35.94 64.0401 34.97 63.0701 33.78 63.0701Z" fill="#070E20"/>
<path d="M46.4 63.0701C45.21 63.0701 44.24 64.0401 44.24 65.2301C44.24 66.4201 45.21 67.3901 46.4 67.3901C47.59 67.3901 48.56 66.4201 48.56 65.2301C48.56 64.0401 47.59 63.0701 46.4 63.0701Z" fill="#070E20"/>
<path d="M27.4799 69.38C26.2899 69.38 25.3199 70.35 25.3199 71.54C25.3199 72.73 26.2899 73.7 27.4799 73.7C28.6699 73.7 29.6399 72.73 29.6399 71.54C29.6399 70.35 28.6699 69.38 27.4799 69.38Z" fill="#070E20"/>
<path d="M52.6999 69.38C51.5099 69.38 50.5399 70.35 50.5399 71.54C50.5399 72.73 51.5099 73.7 52.6999 73.7C53.8899 73.7 54.8599 72.73 54.8599 71.54C54.8599 70.35 53.8899 69.38 52.6999 69.38Z" fill="#070E20"/>
<path d="M21.17 75.6899C19.98 75.6899 19.01 76.6599 19.01 77.8499C19.01 79.0399 19.98 80.0099 21.17 80.0099C22.36 80.0099 23.33 79.0399 23.33 77.8499C23.33 76.6599 22.36 75.6899 21.17 75.6899Z" fill="#070E20"/>
<path d="M27.4799 75.6899C26.2899 75.6899 25.3199 76.6599 25.3199 77.8499C25.3199 79.0399 26.2899 80.0099 27.4799 80.0099C28.6699 80.0099 29.6399 79.0399 29.6399 77.8499C29.6399 76.6599 28.6699 75.6899 27.4799 75.6899Z" fill="#070E20"/>
<path d="M33.78 76.77C33.18 76.77 32.7 77.25 32.7 77.85C32.7 78.45 33.18 78.93 33.78 78.93C34.38 78.93 34.86 78.45 34.86 77.85C34.86 77.25 34.38 76.77 33.78 76.77Z" fill="#070E20"/>
<path d="M40.09 76.77C39.49 76.77 39.01 77.25 39.01 77.85C39.01 78.45 39.49 78.93 40.09 78.93C40.69 78.93 41.17 78.45 41.17 77.85C41.17 77.25 40.69 76.77 40.09 76.77Z" fill="#070E20"/>
<path d="M46.4 75.6899C45.21 75.6899 44.24 76.6599 44.24 77.8499C44.24 79.0399 45.21 80.0099 46.4 80.0099C47.59 80.0099 48.56 79.0399 48.56 77.8499C48.56 76.6599 47.59 75.6899 46.4 75.6899Z" fill="#070E20"/>
<path d="M52.6999 75.6899C51.5099 75.6899 50.5399 76.6599 50.5399 77.8499C50.5399 79.0399 51.5099 80.0099 52.6999 80.0099C53.8899 80.0099 54.8599 79.0399 54.8599 77.8499C54.8599 76.6599 53.8899 75.6899 52.6999 75.6899Z" fill="#070E20"/>
<path d="M59.01 75.6899C57.82 75.6899 56.85 76.6599 56.85 77.8499C56.85 79.0399 57.82 80.0099 59.01 80.0099C60.2 80.0099 61.17 79.0399 61.17 77.8499C61.17 76.6599 60.2 75.6899 59.01 75.6899Z" fill="#070E20"/>
</svg>
